<svg id="833e03b9-5fbc-457e-aeab-d22fd5807fbd" data-name="Layer 1" xmlns="http://www.w3.org/2000/svg" viewBox="0 0 356.7 69.72" preserveAspectRatio="xMinYMid meet"><title>tagesanzeiger-logo</title><path d="M283.59,6.39a25.07,25.07,0,0,1-5.15,5.36l-4.9-5.32L278.75,1a59.72,59.72,0,0,1,4.84,5.36h0Z" style="fill:#1d1d1b;fill-rule:evenodd"/><path d="M166.4,7.9l-1.91,3.31,2.67,0.6,2.12-3.21,4.12,1.49-4.71,7.12c-6-2.45-19.23-2.23-24.71,0L139.46,10l3.95-1.47,2.43,3.31,2.68-.62-1.82-3.36,4.6-.61,2.41,3.41q2.63-.08,5.26,0l2.54-3.38L166.4,7.9h0ZM147,13.47l0.78,1.06a43.74,43.74,0,0,1,17.51,0l0.67-1a42.51,42.51,0,0,0-19,0h0Z" style="fill:#1d1d1b;fill-rule:evenodd"/><path d="M219.35,20.91a48,48,0,0,0,6.76-7.75c1.34,2.27,2.75,5.18,4.61,7.14l2.65-2.17L234,18.86c-1.45,1.43-3.09,2.25-3.09,4.23V48.69A2.61,2.61,0,0,0,232,50.58l2.39-2.51,0.81,0.79a106.71,106.71,0,0,0-7.59,9.92c-2.18-2-4.5-4.85-4.5-7V23.27A10.22,10.22,0,0,0,221.47,21c-0.82.72-1.91,1.37-2.12,2.4V49.79c0,0.94,1.31,1.69,2.08,2.13a64.16,64.16,0,0,0-5.53,6.86,34.81,34.81,0,0,0-6.28-6.65c0.57-.48,1.91-1.41,1.91-2.29V23A3.37,3.37,0,0,0,210,20.45l-2,2.28L207.16,22a72.06,72.06,0,0,0,7-8.79,12.91,12.91,0,0,1,5.16,7.75h0Z" style="fill:#1d1d1b;fill-rule:evenodd"/><path d="M248.55,26.25c-0.67,3-4.49,7.44-6.18,9.27,5.39,2.93,8.27,10,5.92,15.74-2,4.87-7.41,11.91-11.07,15.79-0.83-1.65-2.47-3.81-4.64-3.71-2.57.23-3.54,3.17-4.06,3.45L227.63,66a12.25,12.25,0,0,1,6.53-8.09A6.53,6.53,0,0,1,241,59.63c5.82-7.12,1.23-13.56-4.91-18.75,3-3.84,6.64-7.08,6.44-11-0.19-3.65-1.75-6.09-4.41-8.56l-1.76,1.88-0.86-.77a78.24,78.24,0,0,0,6.73-9.24c3.5,3.71,7.54,7.53,6.28,13.08h0Z" style="fill:#1d1d1b;fill-rule:evenodd"/><path d="M283.61,19.92l2.11-2.35,0.88,0.8c-1.27,1.43-4.08,4-4.08,5.31v25A3.17,3.17,0,0,0,283.83,51l2.33-2.41,0.89,0.74a96.73,96.73,0,0,0-8,9.45c-2-1.65-4.44-4.53-4.44-6.62V23.08a2.57,2.57,0,0,0-1.43-2.22l-1,1.08-0.85-.75a96.34,96.34,0,0,0,6.77-8,57.91,57.91,0,0,0,5.48,6.73h0Z" style="fill:#1d1d1b;fill-rule:evenodd"/><path d="M343.72,21.12a43.93,43.93,0,0,1,5.78-8c0.4,3.88,3.55,9.2,6.45,3.87l0.76,0.27c-1.21,3.44-3.43,7.65-6.14,8.67-1.67.63-3.68-.74-5.42-4.15a3.25,3.25,0,0,0-1.43,2.32V48.21l3.31,3.2,3.1-3.48L351,48.76c-2.23,2.45-6.09,7-8.18,10a59.25,59.25,0,0,0-7.34-6.13l-1.94,2.08-0.87-.75c0.85-1,3.21-3.18,3.21-4.3V23.42c-0.05-1.72-.47-2.49-0.9-2.87l-1.17,1.25L332.95,21a79.2,79.2,0,0,0,6.47-7.87,9.69,9.69,0,0,1,4.3,8h0Z" style="fill:#1d1d1b;fill-rule:evenodd"/><path d="M37,11.95c-2.06,2.16-5.74,3.13-8.62,2.88V52.58c4.76,0,6.55-6.08,7-9l0.93,0.52A16,16,0,0,1,26.35,58.2c-6.29,2.35-13.29.41-18-3.91C1,46.67-.64,34.72,2.66,24.72c2.78-6.9,9.58-12.05,17.1-12.05l0.1,0.93C13.47,16.48,10.8,23.28,10,29.77S10.69,43,14.81,47.9a2,2,0,0,0,1.34-1.24v-28c2.37-1.75,5-3.33,7.49-5.19-5.15-3-13.39-5.53-18.92-1.92-3.1,2-4,6.37-1.34,9.07l-0.52.72c-3-1.85-3.11-5.78-2.68-8.86C0.88,7.5,5.73,3,10.49,1.85,19.44-.37,26.15,5.56,34.28,6.8c2.56,0.43,3.6-2.26,2.88-4.33A3.7,3.7,0,0,0,35.52.91L36,0c4.72,1.74,4.21,9.14.93,11.95h0ZM27,14.68a21.5,21.5,0,0,1-2.58-.88V40.38c0,5.56-5.69,6.94-8.23,9A15.29,15.29,0,0,0,27,52.68v-38h0Z" style="fill:#1d1d1b;fill-rule:evenodd"/><path d="M196.33,7.11c1.89-1.9,5.11-3.89,8.43.1l-0.71.72c-2.18-1.56-3.7-.82-4.6.84s-0.69,4.44-.34,6.38l5.78,32.74a4.42,4.42,0,0,0,1.71,2.82,10,10,0,0,0,2.06-2l0.86,0.79c-1.85,2.08-5.88,7-7.73,9.27-1.85-1.85-3.91-3.71-4.43-6.08l-2.09-11.55h-9.91l-1.1,5.22a11.24,11.24,0,0,1,7.29,3.94l1.66-2.14,0.85,0.61-6.8,9.58c-0.67-2.47-1.89-5.21-5.17-5.53-2.7-.26-4.41,1.46-4.2,4.18s3.15,4.16,5.57,4.29a8.33,8.33,0,0,0,5.8-2.34l0.81,0.65a8.14,8.14,0,0,1-6.69,2.9,8.27,8.27,0,0,1-7.75-8.22c0-4.09,3-7.05,6.86-7.84l1.57-7.05L189.94,11A9,9,0,0,0,185,5.56a4.9,4.9,0,0,0-3.81,0,3.73,3.73,0,0,0-.58,6.15c1.59,1.5,4.24,1.22,6.15.65l0.31,0.82a7.35,7.35,0,0,1-7-.21,5.08,5.08,0,0,1-2.16-4.64,8.27,8.27,0,0,1,3.57-6.18c2.78-2.06,7.35-1.65,10.13.1a15.2,15.2,0,0,1,4.74,4.84h0Zm-5.58,8.32L186.85,34H194l-3.27-18.58h0Z" style="fill:#1d1d1b;fill-rule:evenodd"/><path d="M59.52,19.53c0.53-.32,1.23-0.8,1.74-1.16L62,19.22c-1.44,1.44-4.22,2.27-4,4.74V49.83a2.42,2.42,0,0,0,1.25,1.22A16.33,16.33,0,0,0,61.14,49l0.76,0.54C59.58,52.4,57.1,55.69,55,58.78a17.25,17.25,0,0,1-4.75-6.72A32.62,32.62,0,0,0,44,58.78,47.6,47.6,0,0,1,37.89,53l-2,2.06-0.83-.76c1-1.22,3.39-3.38,3.4-4.82V22.93c4-2.55,9.19-5.51,13.33-9.76a54.79,54.79,0,0,0,7.7,6.36h0Zm-13.13.54v29.5l2,2.1c0.48-.44,1.27-1.16,1.89-1.78l0-26.62a38.5,38.5,0,0,0-3.87-3.2h0Z" style="fill:#1d1d1b;fill-rule:evenodd"/><path d="M85.9,20.17l2.33-1.79L89,19.3c-1.7,1.35-4.58,2.78-4.61,5.19l0,27.35c2,2.47,3.48,5.61,2.55,9-3.19,7.52-12.26,5.46-18.13,8.86,0-6.72-7-6.94-8.78-2.87l-1.11-.33c2-9.21,15.71-9.84,16.59-.31,4.43,0.28,5.81-5.4,3.19-8.55a11.08,11.08,0,0,1-2.15-5.59,85.73,85.73,0,0,0-5.63,6.7L64.47,53l-1.88,2-0.88-.76C62.57,53.26,65,51,65,50.1V23.93A74.23,74.23,0,0,0,78.68,13.17a38.69,38.69,0,0,0,7.21,7h0Zm-13.09.19V49.62l2.07,1.75c0.52-.72,1.19-1.44,1.65-2v-26a14.88,14.88,0,0,0-3.72-3h0Z" style="fill:#1d1d1b;fill-rule:evenodd"/><path d="M102.58,13.17c1.81,4.78,4.15,9.34,6.39,13.93L98.91,37.43V48.29l4,3.35c1.22-1.17,2.2-2.45,3.35-3.8l0.94,0.65c-2.86,3.47-5.9,6.67-8.68,10.28a76.39,76.39,0,0,0-7.66-6.08l-2,2.13L88,54.05c0.87-1,3.08-3.12,3.08-4.17V24c1.75-1.57,8.89-8.13,11.52-10.84h0Zm-3.67,10.1V35.42L103,31.35a58.46,58.46,0,0,0-4.11-8.09h0Z" style="fill:#1d1d1b;fill-rule:evenodd"/><path d="M133.81,13.57l1,0.69-9.71,15.27A19.13,19.13,0,0,0,130.47,32V50.47c-4.48,2.24-8,4.42-11.4,8.31A8.83,8.83,0,0,0,112,55.17C109.49,55,108,57,106.58,58.78l-1-.62c3.19-5,6.41-10.26,9.71-15.31a45.71,45.71,0,0,0-3.94-3.13l0.07-16.3a30.1,30.1,0,0,0,11.05-10.26c3.14,4.25,8.08,5.8,11.35.41h0Zm-14.74,7.81V34.78a1.08,1.08,0,0,0,.71,1l7.67-12.12c-3.75,1.12-5.64.35-8.38-2.24h0Zm1.67,15-7.93,12.49c3.59-.75,6.77-0.47,9.75,2.88V38.11c0-.62-1.15-1.39-1.82-1.71h0Z" style="fill:#1d1d1b;fill-rule:evenodd"/><path d="M156.65,19.18a30.93,30.93,0,0,0-16.55,4.16s-1.05,23.29,16.55,34c17.6-10.67,16.55-34,16.55-34a31,31,0,0,0-16.55-4.16h0Zm0-1.68A34.35,34.35,0,0,1,175,22.11s1.16,25.8-18.34,37.63c-19.5-11.83-18.34-37.63-18.34-37.63a34.35,34.35,0,0,1,18.34-4.61h0Z" style="fill:#1d1d1b;fill-rule:evenodd"/><path d="M156.6,21.28h0a27.05,27.05,0,0,0-14.45,3.63l25.14,17.51a46.86,46.86,0,0,0,3-9.65,47.54,47.54,0,0,0,.75-7.86,27.05,27.05,0,0,0-14.45-3.63h0Zm0-.44a27.88,27.88,0,0,1,14.9,3.74s0.95,21-14.9,30.57c-15.84-9.61-14.9-30.57-14.9-30.57a27.89,27.89,0,0,1,14.9-3.74h0Z" style="fill:#1d1d1b;fill-rule:evenodd"/><path d="M265.08,13.17c1.81,4.78,4.15,9.34,6.39,13.93L261.41,37.43V48.29l4,3.35c1.22-1.17,2.2-2.45,3.35-3.8l0.94,0.65c-2.86,3.47-5.9,6.67-8.68,10.28a76.44,76.44,0,0,0-7.66-6.08l-2,2.13-0.9-.78c0.87-1,3.1-3.14,3.1-4.19V24c1.75-1.57,8.87-8.13,11.49-10.84h0Zm-3.67,10.1V35.42l4.11-4.07a58.51,58.51,0,0,0-4.11-8.09h0Z" style="fill:#1d1d1b;fill-rule:evenodd"/><path d="M326.49,13.17c1.81,4.78,4.15,9.34,6.39,13.93L322.82,37.43V48.29l4,3.35c1.22-1.17,2.2-2.45,3.35-3.8l0.94,0.65c-2.86,3.47-5.9,6.67-8.68,10.28a76.44,76.44,0,0,0-7.66-6.08l-2,2.13-0.9-.78c0.87-1,3-3.12,3-4.17V24c1.75-1.57,8.93-8.12,11.56-10.83h0Zm-3.67,10.1V35.42l4.11-4.07a58.51,58.51,0,0,0-4.11-8.09h0Z" style="fill:#1d1d1b;fill-rule:evenodd"/><path d="M310.15,20.17l2.33-1.79,0.73,0.92c-1.7,1.35-4.58,2.78-4.61,5.19l0,27.35c2,2.47,3.48,5.61,2.55,9C308,68.38,298.92,66.32,293,69.72c0-6.72-7-6.94-8.78-2.87l-1.11-.33c2-9.21,15.71-9.84,16.59-.31,4.43,0.28,5.81-5.4,3.19-8.55a11.08,11.08,0,0,1-2.15-5.59,85.74,85.74,0,0,0-5.63,6.7L288.72,53l-1.88,2L286,54.29c0.85-1,3.26-3.28,3.28-4.19V23.93a74.22,74.22,0,0,0,13.69-10.76,38.69,38.69,0,0,0,7.21,7h0Zm-13.09.19V49.62l2.07,1.75c0.52-.72,1.19-1.44,1.65-2v-26a14.86,14.86,0,0,0-3.72-3h0Z" style="fill:#1d1d1b;fill-rule:evenodd"/></svg>